<?xml version="1.0" encoding="iso-8859-1"?>
<!-- Generator: Adobe Illustrator 19.0.0, SVG Export Plug-In . SVG Version: 6.00 Build 0)  -->
<svg version="1.1" id="Capa_1" xmlns="http://www.w3.org/2000/svg" xmlns:xlink="http://www.w3.org/1999/xlink" x="0px" y="0px"
	 viewBox="0 0 512 512" style="enable-background:new 0 0 512 512;" xml:space="preserve">
<path style="fill:#87DCFA;" d="M511.998,255.998c0,140.486-113.676,255.998-255.998,255.998
	c-141.952,0-255.998-115.164-255.998-255.998C0.002,114.614,114.616,0,256,0C397.648,0,511.998,114.856,511.998,255.998z"/>
<path style="fill:#FFAF82;" d="M391.39,320.625c-2.792,26.454,0.521,88.057,0.594,102.909H120.027
	c0.109-19.443,3.924-74.379-0.091-109.23c-6.644-56.109-20.08-114.758-35.746-166.617c-9.424-31.767-8.256-52.49-10.24-71.661
	C124.106,25.242,190.412,0.003,256,0.003c71.356,0,135.79,29.151,182.156,76.128c-0.99,12.958-0.284,38.991-6.964,60.526
	C417.17,181.896,398.775,250.755,391.39,320.625z"/>
<g>
	<path style="fill:#FF9B69;" d="M120.027,423.535c0.109-19.443,3.924-74.379-0.091-109.23
		c-6.644-56.111-20.08-114.756-35.746-166.617c-9.424-31.767-8.256-52.49-10.24-71.661c33.942-34.367,75.981-57.298,119.25-68.259
		c-26.81,114.558-15.661,262.391,44.617,359.687c14.56,23.473,31.311,42.542,49.611,56.08L120.027,423.535L120.027,423.535z"/>
	<path style="fill:#FF9B69;" d="M415.557,133.42l-8.268,10.521c-11.191,14.234-28.001,22.401-46.111,22.401h-76.709
		c-11.566,0-21.863-5.469-28.468-13.95c-6.605,8.482-16.902,13.95-28.468,13.95h-76.709c-18.109,0-34.92-8.167-46.111-22.401
		l-8.268-10.521c-2.607-3.307-2.029-8.086,1.268-10.683c3.307-2.597,8.096-2.029,10.693,1.278l8.268,10.521
		c8.289,10.541,20.737,16.588,34.149,16.588h76.709c11.505,0,20.859-9.354,20.859-20.859V64.127c0-4.2,3.409-7.609,7.609-7.609
		c4.2,0,7.609,3.409,7.609,7.609v66.138c0,11.505,9.354,20.859,20.859,20.859h76.709c13.413,0,25.861-6.046,34.149-16.588
		l8.268-10.521c2.597-3.307,7.386-3.885,10.683-1.278C417.586,125.334,418.154,130.113,415.557,133.42z"/>
	<path style="fill:#FF9B69;" d="M351.269,228.534c-0.505,3.986-4.086,6.871-8.103,6.871h-64.863c-6.748,0-12.978-2.222-18.01-5.969
		c-2.54-1.891-6.046-1.891-8.586,0c-5.032,3.747-11.262,5.969-18.01,5.969h-64.863c-4.017,0-7.598-2.886-8.103-6.871
		c-0.611-4.821,3.135-8.932,7.836-8.932h65.13c7.944,0,14.402-6.458,14.402-14.391v-22.743c0-4.017,2.886-7.598,6.871-8.103
		c4.821-0.611,8.932,3.135,8.932,7.836v23.009c0,7.933,6.458,14.391,14.402,14.391h65.13
		C348.134,219.602,351.88,223.713,351.269,228.534z"/>
	<path style="fill:#FF9B69;" d="M333.298,293.528c0,4.364-3.538,7.902-7.902,7.902h-49.678c-5.637,0-10.866-1.984-15.178-5.368
		c-2.688-2.109-6.392-2.109-9.079,0c-4.312,3.384-9.541,5.368-15.178,5.368h-49.678c-4.364,0-7.902-3.538-7.902-7.902l0,0
		c0-4.364,3.538-7.901,7.902-7.901h49.678c7.023,0,12.732-6.458,12.732-14.402v-22.999c0-4.362,3.129-7.902,6.986-7.902
		c3.856,0,6.986,3.54,6.986,7.902v22.999c0,7.944,5.709,14.402,12.732,14.402h49.678
		C329.76,285.627,333.298,289.164,333.298,293.528L333.298,293.528z"/>
	<path style="fill:#FF9B69;" d="M321.059,359.553c0,4.364-3.538,7.901-7.902,7.901h-40.561c-4.384,0-8.475-1.694-11.934-4.621
		c-2.702-2.286-6.664-2.233-9.373,0.044c-2.659,2.236-5.689,3.741-8.937,4.314c-0.964,0.179-1.952,0.263-2.948,0.263h-40.561
		c-4.364,0-7.902-3.538-7.902-7.902l0,0c0-4.364,3.538-7.901,7.902-7.901h40.561c5.91,0,10.717-6.458,10.717-14.402v-22.999
		c0-4.362,2.634-7.902,5.88-7.902c3.246,0,5.88,3.54,5.88,7.902v22.999c0,7.944,4.805,14.402,10.717,14.402h40.561
		C317.521,351.652,321.059,355.19,321.059,359.553L321.059,359.553z"/>
</g>
<path style="fill:#FA875A;" d="M134.72,128.671c1.542,1.542,3.565,2.315,5.587,2.315s4.045-0.771,5.587-2.315
	c3.086-3.086,3.086-8.089,0-11.174l-11.652-11.652c-3.086-3.086-8.089-3.086-11.174,0c-3.086,3.086-3.086,8.089,0,11.174
	L134.72,128.671z"/>
<path style="fill:#FF9B69;" d="M371.694,130.986c2.022,0,4.044-0.771,5.588-2.315l11.652-11.652c3.086-3.086,3.086-8.089,0-11.174
	c-3.087-3.086-8.089-3.086-11.175,0l-11.652,11.652c-3.086,3.086-3.086,8.089,0,11.174
	C367.649,130.214,369.672,130.986,371.694,130.986z"/>
<path style="fill:#5AC3A5;" d="M112.319,467.952C153.175,495.723,202.575,512,256,512c24.052,0,47.293-3.308,69.323-9.482
	c26.844-7.522,51.876-19.311,74.337-34.577c-4.962-25.306-5.91-25.78-6.005-44.406h-275.32
	C118.24,442.235,117.302,442.635,112.319,467.952z"/>
<g>
	<path style="fill:#3CAF96;" d="M282.591,449.715c0,16.909-1.422,44.333-6.49,61.495C269.475,511.737,262.774,512,256,512
		c-53.425,0-102.825-16.277-143.681-44.048c4.983-25.316,5.921-25.717,6.016-44.417h161.886
		C281.769,432.026,282.591,440.77,282.591,449.715z"/>
	<path style="fill:#3CAF96;" d="M111.666,420.817v19.554c0,3.435,2.781,6.216,6.216,6.216h276.237c3.435,0,6.216-2.781,6.216-6.216
		v-19.554c0-3.435-2.781-6.216-6.216-6.216H117.882C114.447,414.601,111.666,417.382,111.666,420.817z"/>
</g>
<g>
	<path style="fill:#FA875A;" d="M180.493,166.346h-29.668c-18.11,0-34.925-8.175-46.113-22.409l-8.27-10.514
		c-2.602-3.308-2.023-8.091,1.264-10.683c3.308-2.602,8.102-2.033,10.693,1.275l8.27,10.525
		c8.291,10.535,20.744,16.583,34.156,16.583h28.951C179.945,156.2,180.188,161.268,180.493,166.346z"/>
	<path style="fill:#FA875A;" d="M168.567,219.602h17.71c0.853,5.331,1.78,10.599,2.781,15.803h-20.491
		c-4.362,0-7.902-3.54-7.902-7.902S164.206,219.602,168.567,219.602z"/>
	<path style="fill:#FA875A;" d="M206.747,301.43h-20.144c-4.362,0-7.902-3.54-7.902-7.902c0-2.181,0.885-4.151,2.318-5.584
		c1.422-1.433,3.403-2.318,5.584-2.318h14.918C203.176,291,204.914,296.268,206.747,301.43z"/>
	<path style="fill:#FA875A;" d="M237.816,367.455h-38.97c-4.362,0-7.902-3.54-7.902-7.901c0-2.181,0.885-4.161,2.318-5.584
		c1.422-1.433,3.403-2.318,5.584-2.318h29.857C231.632,357.12,234.676,362.388,237.816,367.455z"/>
</g>
<path style="fill:#1E9682;" d="M290.756,432.848c0,4.636-0.242,9.218-0.716,13.738H117.882c-3.435,0-6.216-2.781-6.216-6.216
	v-19.554c0-3.435,2.781-6.216,6.216-6.216h171.61C290.324,420.564,290.756,426.653,290.756,432.848z"/>
<g>
</g>
<g>
</g>
<g>
</g>
<g>
</g>
<g>
</g>
<g>
</g>
<g>
</g>
<g>
</g>
<g>
</g>
<g>
</g>
<g>
</g>
<g>
</g>
<g>
</g>
<g>
</g>
<g>
</g>
</svg>
